<?xml version="1.0" encoding="utf-8"?>
<!-- Generator: Adobe Illustrator 19.0.0, SVG Export Plug-In . SVG Version: 6.00 Build 0)  -->
<svg version="1.1" id="Capa_1" xmlns="http://www.w3.org/2000/svg" xmlns:xlink="http://www.w3.org/1999/xlink" x="0px" y="0px"
	 viewBox="-32.4 37.1 113.9 21.2" style="enable-background:new -32.4 37.1 113.9 21.2;" xml:space="preserve">
<style type="text/css">
	.st0{fill:#1D1D1D;}
</style>
<g id="XMLID_239_">
	<path id="XMLID_265_" class="st0" d="M-32.2,57.7c-0.1,0-0.2-0.1-0.2-0.2V38.2c0-0.1,0.1-0.2,0.2-0.2l4.3-0.7
		c0.1,0,0.1,0.1,0.1,0.2v0.7l6.1-0.9c0.1,0,0.1,0,0.1,0.1v8.5c0,0.1-0.1,0.2-0.2,0.2l-1.4,0.4l1.5,2c0,0.1,0.1,0.1,0.1,0.2v7.7
		c0,0.1-0.1,0.2-0.2,0.2L-32.2,57.7z M-26.2,42.1l-1.4,0.2v4.5l1.4-1.4V42.1z M-27.7,53l1.4-0.3v-2.6l-1.4-2V53z"/>
	<path id="XMLID_263_" class="st0" d="M-15.1,37.3c0.1,0,0.1,0.1,0.1,0.2v15.1h1.9c0.1,0,0.1,0,0.1,0.1s0,0.3-0.1,0.6
		c0,0.3-0.1,0.7-0.2,1.3s-0.2,1.5-0.4,2.6c0,0.1-0.1,0.2-0.2,0.2H-20c-0.1,0-0.2-0.1-0.2-0.2v-19c0-0.1,0.1-0.2,0.2-0.2L-15.1,37.3z
		"/>
	<path id="XMLID_260_" class="st0" d="M-7.7,52.6l-0.2,5c0,0.1-0.1,0.2-0.2,0.2l-4.4-0.2c-0.1,0-0.2-0.1-0.2-0.2l1-19.1
		c0-0.1,0.1-0.2,0.2-0.2l9-0.7c0.1,0,0.2,0.1,0.2,0.2l1,19.8c0,0.1-0.1,0.2-0.2,0.2l-4.6,0.2c-0.1,0-0.2-0.1-0.2-0.2V53L-7.7,52.6z
		 M-6.8,41.9h-0.5l-0.4,8.5l1.3,0.4L-6.8,41.9z"/>
	<path id="XMLID_258_" class="st0" d="M8.1,41.9c0,0.1-0.1,0.2-0.2,0.2h-3v10.7l3.5,0.3c0.1,0,0.1,0,0.1,0v0.1L8,57.5
		c0,0.1-0.1,0.1-0.2,0.1l-8-1c-0.1,0-0.2-0.1-0.2-0.2V38.3c0-0.1,0.1-0.2,0.2-0.2l8.7-0.7c0.1,0,0.2,0.1,0.2,0.2L8.1,41.9z"/>
	<path id="XMLID_256_" class="st0" d="M16.1,58.3L16.1,58.3c-0.2,0-0.2,0-0.2-0.1l-1.5-9.8v8.7c0,0.1-0.1,0.2-0.2,0.2H9.8
		c-0.1,0-0.2-0.1-0.2-0.2v-19c0-0.1,0.1-0.2,0.2-0.2l4.4-0.6c0.1,0,0.1,0,0.1,0.1v5l1.5-5.1c0-0.1,0.1-0.2,0.2-0.2l5,0.9
		c0.1,0,0.1,0.1,0.1,0.1l-2.3,6.7L21,56.7c0,0.1-0.1,0.2-0.2,0.2L16.1,58.3z"/>
	<path id="XMLID_253_" class="st0" d="M29.6,52.2v4.9c0,0.1-0.1,0.2-0.2,0.2H25c-0.1,0-0.2-0.1-0.2-0.2v-19c0-0.1,0.1-0.2,0.2-0.2
		l4.4-0.6c0.1,0,0.1,0,0.1,0.1v0.8l6.1-0.9c0.1,0,0.1,0,0.1,0.1v13.8c0,0.1-0.1,0.2-0.2,0.2L29.6,52.2z M29.6,49.7l1.4-0.2v-7.4
		l-1.4,0.2V49.7z"/>
	<path id="XMLID_251_" class="st0" d="M44.4,41.9c0,0.1-0.1,0.2-0.2,0.2h-2v4h1.9c0,0,0.1,0,0.1,0.1l-0.3,1.9c0,0,0,0.1-0.1,0.1
		h-1.6v4.7l2.9,0.4c0.1,0,0.1,0,0.1,0.1v0.1l-0.6,4.3c0,0.1-0.1,0.1-0.2,0.1l-7.3-1c-0.1,0-0.2-0.1-0.2-0.2V38.2
		c0-0.1,0.1-0.2,0.2-0.2l7.8-0.7c0.1,0,0.1,0.1,0.1,0.2L44.4,41.9z"/>
	<path id="XMLID_248_" class="st0" d="M51,52.2v4.9c0,0.1-0.1,0.2-0.2,0.2h-4.4c-0.1,0-0.2-0.1-0.2-0.2v-19c0-0.1,0.1-0.2,0.2-0.2
		l4.4-0.6c0.1,0,0.1,0,0.1,0.1v0.8l6.1-0.9c0.1,0,0.1,0,0.1,0.1v13.8c0,0.1-0.1,0.2-0.2,0.2L51,52.2z M51,49.7l1.4-0.2v-7.4L51,42.3
		V49.7z"/>
	<path id="XMLID_245_" class="st0" d="M63.1,52.2v4.9c0,0.1-0.1,0.2-0.2,0.2h-4.4c-0.1,0-0.2-0.1-0.2-0.2v-19c0-0.1,0.1-0.2,0.2-0.2
		l4.4-0.6c0.1,0,0.1,0,0.1,0.1v0.8l6.1-0.9c0.1,0,0.1,0,0.1,0.1v13.8c0,0.1-0.1,0.2-0.2,0.2L63.1,52.2z M63.1,49.7l1.4-0.2v-7.4
		l-1.4,0.2V49.7z"/>
	<path id="XMLID_241_" class="st0" d="M75.1,52.6l-0.2,5c0,0.1-0.1,0.2-0.2,0.2l-4.4-0.2c-0.1,0-0.2-0.1-0.2-0.2l1-19.1
		c0-0.1,0.1-0.2,0.2-0.2l9-0.7c0.1,0,0.2,0.1,0.2,0.2l1,19.8c0,0.1-0.1,0.2-0.2,0.2l-4.6,0.2c-0.1,0-0.2-0.1-0.2-0.2l-0.2-4.5
		L75.1,52.6z M76,41.9h-0.5l-0.4,8.5l1.3,0.4L76,41.9z"/>
</g>
</svg>
