<?xml version="1.0" encoding="utf-8"?>
<!-- Generator: Adobe Illustrator 19.0.0, SVG Export Plug-In . SVG Version: 6.00 Build 0)  -->
<svg version="1.1" id="Capa_1" xmlns="http://www.w3.org/2000/svg" xmlns:xlink="http://www.w3.org/1999/xlink" x="0px" y="0px"
	 viewBox="-32 8 184.1 50" style="enable-background:new -32 8 184.1 50;" xml:space="preserve">
<style type="text/css">
	.st0{fill:#1D1D1D;}
</style>
<g id="XMLID_14_">
	<path id="XMLID_236_" class="st0" d="M23.2,33.2C26.5,45,12.9,51.9,1,55.4c-11.8,3.4-25.6-10.4-22.2-22.2C-17.8,21.3-10.8,7.6,1,11
		C12.8,14.4,19.7,20.9,23.2,33.2z"/>
	<g id="XMLID_2_">
		<g id="XMLID_239_">
			<path id="XMLID_265_" class="st0" d="M31.8,41.7c-0.1,0-0.2-0.1-0.2-0.2V22.2c0-0.1,0.1-0.2,0.2-0.2l4.3-0.7
				c0.1,0,0.1,0.1,0.1,0.2v0.7l6.1-0.9c0.1,0,0.1,0,0.1,0.1v8.5c0,0.1-0.1,0.2-0.2,0.2l-1.4,0.4l1.5,2c0,0.1,0.1,0.1,0.1,0.2v7.7
				c0,0.1-0.1,0.2-0.2,0.2L31.8,41.7z M37.8,26.1l-1.4,0.2v4.5l1.4-1.4V26.1z M36.3,37l1.4-0.3v-2.6l-1.4-2V37z"/>
			<path id="XMLID_263_" class="st0" d="M48.9,21.3c0.1,0,0.1,0.1,0.1,0.2v15.1h1.9c0.1,0,0.1,0,0.1,0.1c0,0.1,0,0.3-0.1,0.6
				c0,0.3-0.1,0.7-0.2,1.3c-0.1,0.6-0.2,1.5-0.4,2.6c0,0.1-0.1,0.2-0.2,0.2H44c-0.1,0-0.2-0.1-0.2-0.2V22.2c0-0.1,0.1-0.2,0.2-0.2
				L48.9,21.3z"/>
			<path id="XMLID_260_" class="st0" d="M56.3,36.6l-0.2,5c0,0.1-0.1,0.2-0.2,0.2l-4.4-0.2c-0.1,0-0.2-0.1-0.2-0.2l1-19.1
				c0-0.1,0.1-0.2,0.2-0.2l9-0.7c0.1,0,0.2,0.1,0.2,0.2l1,19.8c0,0.1-0.1,0.2-0.2,0.2l-4.6,0.2c-0.1,0-0.2-0.1-0.2-0.2L57.7,37
				L56.3,36.6z M57.2,25.9l-0.5,0l-0.4,8.5l1.3,0.4L57.2,25.9z"/>
			<path id="XMLID_258_" class="st0" d="M72.1,25.9c0,0.1-0.1,0.2-0.2,0.2h-3v10.7l3.5,0.3c0.1,0,0.1,0,0.1,0c0,0,0,0.1,0,0.1
				L72,41.5c0,0.1-0.1,0.1-0.2,0.1l-8-1c-0.1,0-0.2-0.1-0.2-0.2V22.3c0-0.1,0.1-0.2,0.2-0.2l8.7-0.7c0.1,0,0.2,0.1,0.2,0.2
				L72.1,25.9z"/>
			<path id="XMLID_256_" class="st0" d="M80.1,42.3C80.1,42.3,80.1,42.3,80.1,42.3c-0.2,0-0.2,0-0.2-0.1l-1.5-9.8v8.7
				c0,0.1-0.1,0.2-0.2,0.2h-4.4c-0.1,0-0.2-0.1-0.2-0.2v-19c0-0.1,0.1-0.2,0.2-0.2l4.4-0.6c0.1,0,0.1,0,0.1,0.1v5l1.5-5.1
				c0-0.1,0.1-0.2,0.2-0.2L85,22c0.1,0,0.1,0.1,0.1,0.1l-2.3,6.7L85,40.7c0,0.1-0.1,0.2-0.2,0.2L80.1,42.3z"/>
			<path id="XMLID_253_" class="st0" d="M93.6,36.2v4.9c0,0.1-0.1,0.2-0.2,0.2h-4.4c-0.1,0-0.2-0.1-0.2-0.2v-19
				c0-0.1,0.1-0.2,0.2-0.2l4.4-0.6c0.1,0,0.1,0,0.1,0.1v0.8l6.1-0.9c0.1,0,0.1,0,0.1,0.1v13.8c0,0.1-0.1,0.2-0.2,0.2L93.6,36.2z
				 M93.6,33.7l1.4-0.2v-7.4l-1.4,0.2V33.7z"/>
			<path id="XMLID_251_" class="st0" d="M108.4,25.9c0,0.1-0.1,0.2-0.2,0.2h-2v4h1.9c0,0,0.1,0,0.1,0.1l-0.3,1.9c0,0,0,0.1-0.1,0.1
				h-1.6v4.7l2.9,0.4c0.1,0,0.1,0,0.1,0.1c0,0,0,0.1,0,0.1l-0.6,4.3c0,0.1-0.1,0.1-0.2,0.1l-7.3-1c-0.1,0-0.2-0.1-0.2-0.2V22.2
				c0-0.1,0.1-0.2,0.2-0.2l7.8-0.7c0.1,0,0.1,0.1,0.1,0.2L108.4,25.9z"/>
			<path id="XMLID_248_" class="st0" d="M115,36.2v4.9c0,0.1-0.1,0.2-0.2,0.2h-4.4c-0.1,0-0.2-0.1-0.2-0.2v-19
				c0-0.1,0.1-0.2,0.2-0.2l4.4-0.6c0.1,0,0.1,0,0.1,0.1v0.8l6.1-0.9c0.1,0,0.1,0,0.1,0.1v13.8c0,0.1-0.1,0.2-0.2,0.2L115,36.2z
				 M115,33.7l1.4-0.2v-7.4l-1.4,0.2V33.7z"/>
			<path id="XMLID_245_" class="st0" d="M127.1,36.2v4.9c0,0.1-0.1,0.2-0.2,0.2h-4.4c-0.1,0-0.2-0.1-0.2-0.2v-19
				c0-0.1,0.1-0.2,0.2-0.2l4.4-0.6c0.1,0,0.1,0,0.1,0.1v0.8l6.1-0.9c0.1,0,0.1,0,0.1,0.1v13.8c0,0.1-0.1,0.2-0.2,0.2L127.1,36.2z
				 M127.1,33.7l1.4-0.2v-7.4l-1.4,0.2V33.7z"/>
			<path id="XMLID_241_" class="st0" d="M139.1,36.6l-0.2,5c0,0.1-0.1,0.2-0.2,0.2l-4.4-0.2c-0.1,0-0.2-0.1-0.2-0.2l1-19.1
				c0-0.1,0.1-0.2,0.2-0.2l9-0.7c0.1,0,0.2,0.1,0.2,0.2l1,19.8c0,0.1-0.1,0.2-0.2,0.2l-4.6,0.2c-0.1,0-0.2-0.1-0.2-0.2l-0.2-4.5
				L139.1,36.6z M140,25.9l-0.5,0l-0.4,8.5l1.3,0.4L140,25.9z"/>
		</g>
		<g id="XMLID_219_">
			<path id="XMLID_233_" class="st0" d="M62.3,46.7c0.3-0.1,0.7-0.1,1.2-0.1c0.8,0,1.3,0.2,1.7,0.6c0.5,0.5,0.8,1.3,0.8,2.5
				c0,1.3-0.3,2.2-0.9,2.6c-0.4,0.4-1,0.6-1.9,0.6c-0.4,0-0.8,0-1-0.1V46.7z M63.5,51.9c0.1,0,0.1,0,0.2,0c0.6,0,1.1-0.6,1.1-2.3
				c0-1.3-0.3-2.1-1.1-2.1c-0.1,0-0.2,0-0.2,0V51.9z"/>
			<path id="XMLID_231_" class="st0" d="M72.7,46.6v6.2h-1.2v-6.2H72.7z"/>
			<path id="XMLID_229_" class="st0" d="M81.9,52.7c-0.3,0.1-0.8,0.2-1.3,0.2c-0.7,0-1.2-0.2-1.7-0.6c-0.5-0.5-0.8-1.4-0.8-2.5
				c0-2.3,1.3-3.2,2.6-3.2c0.5,0,0.8,0.1,1,0.2l-0.2,1c-0.2-0.1-0.4-0.1-0.7-0.1c-0.8,0-1.5,0.6-1.5,2.2c0,1.5,0.6,2,1.1,2
				c0.1,0,0.2,0,0.2,0v-1.5h-0.6v-1h1.7V52.7z"/>
			<path id="XMLID_227_" class="st0" d="M88.6,46.6v6.2h-1.2v-6.2H88.6z"/>
			<path id="XMLID_225_" class="st0" d="M95,47.8h-1.1v-1.1h3.4v1.1h-1.1v5.1H95V47.8z"/>
			<path id="XMLID_222_" class="st0" d="M103.3,51.5l-0.3,1.4h-1.2l1.4-6.2h1.5l1.2,6.2h-1.2l-0.3-1.4H103.3z M104.3,50.5l-0.2-1.3
				c-0.1-0.4-0.1-1-0.2-1.4h0c-0.1,0.4-0.2,1.1-0.2,1.4l-0.2,1.3H104.3z"/>
			<path id="XMLID_220_" class="st0" d="M111.1,46.6h1.2v5.2h1.6v1h-2.8V46.6z"/>
		</g>
	</g>
</g>
</svg>
