<?xml version="1.0" encoding="utf-8"?>
<!-- Generator: Adobe Illustrator 19.0.0, SVG Export Plug-In . SVG Version: 6.00 Build 0)  -->
<svg version="1.1" id="Capa_1" xmlns="http://www.w3.org/2000/svg" xmlns:xlink="http://www.w3.org/1999/xlink" x="0px" y="0px"
	 viewBox="0 0 64 64" style="enable-background:new 0 0 64 64;" xml:space="preserve">
<style type="text/css">
	.st0{fill:#FFFFFF;}
</style>
<g id="XMLID_1_">
	<path id="XMLID_56_" class="st0" d="M32,64C14.4,64,0,49.6,0,32C0,14.4,14.4,0,32,0s32,14.4,32,32C64,49.6,49.6,64,32,64z M32,6.6
		C18,6.6,6.6,18,6.6,32S18,57.4,32,57.4S57.4,46,57.4,32S46,6.6,32,6.6z"/>
</g>
<path id="XMLID_2_" class="st0" d="M26.5,21l17.3,10c1,0.6,1,2,0,2.6l-17.3,10c-1,0.6-2.3-0.1-2.3-1.3v-20
	C24.2,21.1,25.4,20.4,26.5,21z"/>
</svg>
